<mxfile host="app.diagrams.net" modified="2023-11-24T08:48:27.700Z" agent="Mozilla/5.0 (Macintosh; Intel Mac OS X 10_15_7) AppleWebKit/537.36 (KHTML, like Gecko) Chrome/119.0.0.0 Safari/537.36" etag="_d4u6EL83f64hzyyXQ78" version="22.1.3" type="github">
  <diagram name="Page-1" id="O2WwPxYlMlBGZqd85Bm_">
    <mxGraphModel dx="1222" dy="834" grid="1" gridSize="10" guides="1" tooltips="1" connect="1" arrows="1" fold="1" page="1" pageScale="1" pageWidth="827" pageHeight="1169" math="0" shadow="0">
      <root>
        <mxCell id="0" />
        <mxCell id="1" parent="0" />
        <mxCell id="p9L-tS2LZ4l52d3lMuFt-42" value="" style="edgeStyle=orthogonalEdgeStyle;rounded=0;orthogonalLoop=1;jettySize=auto;html=1;" edge="1" parent="1" source="p9L-tS2LZ4l52d3lMuFt-1">
          <mxGeometry relative="1" as="geometry">
            <mxPoint x="294" y="230" as="targetPoint" />
          </mxGeometry>
        </mxCell>
        <mxCell id="p9L-tS2LZ4l52d3lMuFt-1" value="Bank App" style="ellipse;whiteSpace=wrap;html=1;aspect=fixed;direction=north;" vertex="1" parent="1">
          <mxGeometry x="222" y="30" width="84" height="84" as="geometry" />
        </mxCell>
        <mxCell id="p9L-tS2LZ4l52d3lMuFt-6" value="" style="edgeStyle=orthogonalEdgeStyle;rounded=0;orthogonalLoop=1;jettySize=auto;html=1;" edge="1" parent="1" source="p9L-tS2LZ4l52d3lMuFt-2" target="p9L-tS2LZ4l52d3lMuFt-5">
          <mxGeometry relative="1" as="geometry" />
        </mxCell>
        <mxCell id="p9L-tS2LZ4l52d3lMuFt-2" value="User&lt;br&gt;" style="shape=umlActor;verticalLabelPosition=bottom;verticalAlign=top;html=1;outlineConnect=0;" vertex="1" parent="1">
          <mxGeometry x="660" y="30" width="80" height="150" as="geometry" />
        </mxCell>
        <mxCell id="p9L-tS2LZ4l52d3lMuFt-8" value="" style="edgeStyle=orthogonalEdgeStyle;rounded=0;orthogonalLoop=1;jettySize=auto;html=1;" edge="1" parent="1" source="p9L-tS2LZ4l52d3lMuFt-5" target="p9L-tS2LZ4l52d3lMuFt-7">
          <mxGeometry relative="1" as="geometry" />
        </mxCell>
        <mxCell id="p9L-tS2LZ4l52d3lMuFt-5" value="Properties" style="whiteSpace=wrap;html=1;verticalAlign=top;" vertex="1" parent="1">
          <mxGeometry x="640" y="305" width="120" height="60" as="geometry" />
        </mxCell>
        <mxCell id="p9L-tS2LZ4l52d3lMuFt-12" value="" style="edgeStyle=orthogonalEdgeStyle;rounded=0;orthogonalLoop=1;jettySize=auto;html=1;" edge="1" parent="1" source="p9L-tS2LZ4l52d3lMuFt-7" target="p9L-tS2LZ4l52d3lMuFt-11">
          <mxGeometry relative="1" as="geometry" />
        </mxCell>
        <mxCell id="p9L-tS2LZ4l52d3lMuFt-7" value="Name" style="rounded=1;whiteSpace=wrap;html=1;verticalAlign=top;" vertex="1" parent="1">
          <mxGeometry x="660" y="420" width="80" height="45" as="geometry" />
        </mxCell>
        <mxCell id="p9L-tS2LZ4l52d3lMuFt-14" value="" style="edgeStyle=orthogonalEdgeStyle;rounded=0;orthogonalLoop=1;jettySize=auto;html=1;" edge="1" parent="1" source="p9L-tS2LZ4l52d3lMuFt-11" target="p9L-tS2LZ4l52d3lMuFt-13">
          <mxGeometry relative="1" as="geometry" />
        </mxCell>
        <mxCell id="p9L-tS2LZ4l52d3lMuFt-11" value="Id" style="rounded=1;whiteSpace=wrap;html=1;verticalAlign=top;" vertex="1" parent="1">
          <mxGeometry x="660" y="480" width="80" height="45" as="geometry" />
        </mxCell>
        <mxCell id="p9L-tS2LZ4l52d3lMuFt-18" value="" style="edgeStyle=orthogonalEdgeStyle;rounded=0;orthogonalLoop=1;jettySize=auto;html=1;" edge="1" parent="1" source="p9L-tS2LZ4l52d3lMuFt-13" target="p9L-tS2LZ4l52d3lMuFt-17">
          <mxGeometry relative="1" as="geometry" />
        </mxCell>
        <mxCell id="p9L-tS2LZ4l52d3lMuFt-13" value="Balance" style="rounded=1;whiteSpace=wrap;html=1;verticalAlign=top;" vertex="1" parent="1">
          <mxGeometry x="660" y="550" width="80" height="40" as="geometry" />
        </mxCell>
        <mxCell id="p9L-tS2LZ4l52d3lMuFt-21" value="" style="edgeStyle=orthogonalEdgeStyle;rounded=0;orthogonalLoop=1;jettySize=auto;html=1;" edge="1" parent="1" source="p9L-tS2LZ4l52d3lMuFt-17" target="p9L-tS2LZ4l52d3lMuFt-20">
          <mxGeometry relative="1" as="geometry" />
        </mxCell>
        <mxCell id="p9L-tS2LZ4l52d3lMuFt-17" value="Transaction history" style="rounded=1;whiteSpace=wrap;html=1;verticalAlign=top;" vertex="1" parent="1">
          <mxGeometry x="660" y="610" width="80" height="40" as="geometry" />
        </mxCell>
        <mxCell id="p9L-tS2LZ4l52d3lMuFt-20" value="last transaction" style="rounded=1;whiteSpace=wrap;html=1;verticalAlign=top;" vertex="1" parent="1">
          <mxGeometry x="660" y="680" width="80" height="40" as="geometry" />
        </mxCell>
        <mxCell id="p9L-tS2LZ4l52d3lMuFt-46" value="" style="edgeStyle=orthogonalEdgeStyle;rounded=0;orthogonalLoop=1;jettySize=auto;html=1;" edge="1" parent="1" source="p9L-tS2LZ4l52d3lMuFt-41" target="p9L-tS2LZ4l52d3lMuFt-45">
          <mxGeometry relative="1" as="geometry" />
        </mxCell>
        <mxCell id="p9L-tS2LZ4l52d3lMuFt-51" value="Yes" style="edgeLabel;html=1;align=center;verticalAlign=middle;resizable=0;points=[];" vertex="1" connectable="0" parent="p9L-tS2LZ4l52d3lMuFt-46">
          <mxGeometry x="-0.3642" y="-1" relative="1" as="geometry">
            <mxPoint as="offset" />
          </mxGeometry>
        </mxCell>
        <mxCell id="p9L-tS2LZ4l52d3lMuFt-48" value="" style="edgeStyle=orthogonalEdgeStyle;rounded=0;orthogonalLoop=1;jettySize=auto;html=1;" edge="1" parent="1" source="p9L-tS2LZ4l52d3lMuFt-41" target="p9L-tS2LZ4l52d3lMuFt-47">
          <mxGeometry relative="1" as="geometry" />
        </mxCell>
        <mxCell id="p9L-tS2LZ4l52d3lMuFt-50" value="No" style="edgeLabel;html=1;align=center;verticalAlign=middle;resizable=0;points=[];" vertex="1" connectable="0" parent="p9L-tS2LZ4l52d3lMuFt-48">
          <mxGeometry x="-0.3049" y="5" relative="1" as="geometry">
            <mxPoint as="offset" />
          </mxGeometry>
        </mxCell>
        <mxCell id="p9L-tS2LZ4l52d3lMuFt-41" value="Do you have an account" style="shape=parallelogram;perimeter=parallelogramPerimeter;whiteSpace=wrap;html=1;fixedSize=1;" vertex="1" parent="1">
          <mxGeometry x="204" y="180" width="120" height="60" as="geometry" />
        </mxCell>
        <mxCell id="p9L-tS2LZ4l52d3lMuFt-68" value="" style="edgeStyle=orthogonalEdgeStyle;rounded=0;orthogonalLoop=1;jettySize=auto;html=1;" edge="1" parent="1" source="p9L-tS2LZ4l52d3lMuFt-45" target="p9L-tS2LZ4l52d3lMuFt-67">
          <mxGeometry relative="1" as="geometry" />
        </mxCell>
        <mxCell id="p9L-tS2LZ4l52d3lMuFt-45" value="Enter username/password" style="shape=parallelogram;perimeter=parallelogramPerimeter;whiteSpace=wrap;html=1;fixedSize=1;" vertex="1" parent="1">
          <mxGeometry x="360" y="255" width="120" height="60" as="geometry" />
        </mxCell>
        <mxCell id="p9L-tS2LZ4l52d3lMuFt-57" value="" style="edgeStyle=orthogonalEdgeStyle;rounded=0;orthogonalLoop=1;jettySize=auto;html=1;" edge="1" parent="1" source="p9L-tS2LZ4l52d3lMuFt-47" target="p9L-tS2LZ4l52d3lMuFt-56">
          <mxGeometry relative="1" as="geometry" />
        </mxCell>
        <mxCell id="p9L-tS2LZ4l52d3lMuFt-59" value="" style="edgeStyle=orthogonalEdgeStyle;rounded=0;orthogonalLoop=1;jettySize=auto;html=1;" edge="1" parent="1" source="p9L-tS2LZ4l52d3lMuFt-47" target="p9L-tS2LZ4l52d3lMuFt-58">
          <mxGeometry relative="1" as="geometry" />
        </mxCell>
        <mxCell id="p9L-tS2LZ4l52d3lMuFt-61" value="" style="edgeStyle=orthogonalEdgeStyle;rounded=0;orthogonalLoop=1;jettySize=auto;html=1;" edge="1" parent="1" source="p9L-tS2LZ4l52d3lMuFt-47" target="p9L-tS2LZ4l52d3lMuFt-60">
          <mxGeometry relative="1" as="geometry" />
        </mxCell>
        <mxCell id="p9L-tS2LZ4l52d3lMuFt-63" value="" style="edgeStyle=orthogonalEdgeStyle;rounded=0;orthogonalLoop=1;jettySize=auto;html=1;" edge="1" parent="1" source="p9L-tS2LZ4l52d3lMuFt-58" target="p9L-tS2LZ4l52d3lMuFt-62">
          <mxGeometry relative="1" as="geometry" />
        </mxCell>
        <mxCell id="p9L-tS2LZ4l52d3lMuFt-47" value="Create an account" style="whiteSpace=wrap;html=1;" vertex="1" parent="1">
          <mxGeometry x="50" y="255" width="120" height="60" as="geometry" />
        </mxCell>
        <mxCell id="p9L-tS2LZ4l52d3lMuFt-56" value="Enter Fullname" style="rounded=1;whiteSpace=wrap;html=1;" vertex="1" parent="1">
          <mxGeometry x="50" y="390" width="120" height="60" as="geometry" />
        </mxCell>
        <mxCell id="p9L-tS2LZ4l52d3lMuFt-60" value="Create password" style="rounded=1;whiteSpace=wrap;html=1;" vertex="1" parent="1">
          <mxGeometry x="50" y="580" width="120" height="60" as="geometry" />
        </mxCell>
        <mxCell id="p9L-tS2LZ4l52d3lMuFt-62" value="confirm password" style="rounded=1;whiteSpace=wrap;html=1;" vertex="1" parent="1">
          <mxGeometry x="50" y="680" width="120" height="60" as="geometry" />
        </mxCell>
        <mxCell id="p9L-tS2LZ4l52d3lMuFt-64" value="" style="edgeStyle=orthogonalEdgeStyle;rounded=0;orthogonalLoop=1;jettySize=auto;html=1;" edge="1" parent="1" source="p9L-tS2LZ4l52d3lMuFt-47" target="p9L-tS2LZ4l52d3lMuFt-58">
          <mxGeometry relative="1" as="geometry">
            <mxPoint x="140" y="365" as="sourcePoint" />
            <mxPoint x="140" y="750" as="targetPoint" />
          </mxGeometry>
        </mxCell>
        <mxCell id="p9L-tS2LZ4l52d3lMuFt-58" value="Create username" style="rounded=1;whiteSpace=wrap;html=1;" vertex="1" parent="1">
          <mxGeometry x="50" y="482.5" width="120" height="60" as="geometry" />
        </mxCell>
        <mxCell id="p9L-tS2LZ4l52d3lMuFt-70" value="yes" style="edgeStyle=orthogonalEdgeStyle;rounded=0;orthogonalLoop=1;jettySize=auto;html=1;" edge="1" parent="1" source="p9L-tS2LZ4l52d3lMuFt-67" target="p9L-tS2LZ4l52d3lMuFt-69">
          <mxGeometry relative="1" as="geometry" />
        </mxCell>
        <mxCell id="p9L-tS2LZ4l52d3lMuFt-74" value="" style="edgeStyle=orthogonalEdgeStyle;rounded=0;orthogonalLoop=1;jettySize=auto;html=1;" edge="1" parent="1" source="p9L-tS2LZ4l52d3lMuFt-67" target="p9L-tS2LZ4l52d3lMuFt-73">
          <mxGeometry relative="1" as="geometry" />
        </mxCell>
        <mxCell id="p9L-tS2LZ4l52d3lMuFt-75" value="no" style="edgeLabel;html=1;align=center;verticalAlign=middle;resizable=0;points=[];" vertex="1" connectable="0" parent="p9L-tS2LZ4l52d3lMuFt-74">
          <mxGeometry x="0.1083" y="-3" relative="1" as="geometry">
            <mxPoint as="offset" />
          </mxGeometry>
        </mxCell>
        <mxCell id="p9L-tS2LZ4l52d3lMuFt-67" value="Are those the correct details?" style="whiteSpace=wrap;html=1;" vertex="1" parent="1">
          <mxGeometry x="360" y="360" width="120" height="60" as="geometry" />
        </mxCell>
        <mxCell id="p9L-tS2LZ4l52d3lMuFt-77" value="" style="edgeStyle=orthogonalEdgeStyle;rounded=0;orthogonalLoop=1;jettySize=auto;html=1;" edge="1" parent="1" source="p9L-tS2LZ4l52d3lMuFt-69" target="p9L-tS2LZ4l52d3lMuFt-76">
          <mxGeometry relative="1" as="geometry" />
        </mxCell>
        <mxCell id="p9L-tS2LZ4l52d3lMuFt-79" value="" style="edgeStyle=orthogonalEdgeStyle;rounded=0;orthogonalLoop=1;jettySize=auto;html=1;" edge="1" parent="1" source="p9L-tS2LZ4l52d3lMuFt-69" target="p9L-tS2LZ4l52d3lMuFt-78">
          <mxGeometry relative="1" as="geometry" />
        </mxCell>
        <mxCell id="p9L-tS2LZ4l52d3lMuFt-81" value="" style="edgeStyle=orthogonalEdgeStyle;rounded=0;orthogonalLoop=1;jettySize=auto;html=1;" edge="1" parent="1" source="p9L-tS2LZ4l52d3lMuFt-69" target="p9L-tS2LZ4l52d3lMuFt-80">
          <mxGeometry relative="1" as="geometry" />
        </mxCell>
        <mxCell id="p9L-tS2LZ4l52d3lMuFt-83" value="" style="edgeStyle=orthogonalEdgeStyle;rounded=0;orthogonalLoop=1;jettySize=auto;html=1;" edge="1" parent="1" source="p9L-tS2LZ4l52d3lMuFt-69" target="p9L-tS2LZ4l52d3lMuFt-82">
          <mxGeometry relative="1" as="geometry" />
        </mxCell>
        <mxCell id="p9L-tS2LZ4l52d3lMuFt-85" value="" style="edgeStyle=orthogonalEdgeStyle;rounded=0;orthogonalLoop=1;jettySize=auto;html=1;" edge="1" parent="1" source="p9L-tS2LZ4l52d3lMuFt-69" target="p9L-tS2LZ4l52d3lMuFt-84">
          <mxGeometry relative="1" as="geometry" />
        </mxCell>
        <mxCell id="p9L-tS2LZ4l52d3lMuFt-87" value="" style="edgeStyle=orthogonalEdgeStyle;rounded=0;orthogonalLoop=1;jettySize=auto;html=1;" edge="1" parent="1" source="p9L-tS2LZ4l52d3lMuFt-69" target="p9L-tS2LZ4l52d3lMuFt-86">
          <mxGeometry relative="1" as="geometry" />
        </mxCell>
        <mxCell id="p9L-tS2LZ4l52d3lMuFt-69" value="Welcome {fullname}!&lt;br&gt;What would you like to do?" style="rounded=1;whiteSpace=wrap;html=1;" vertex="1" parent="1">
          <mxGeometry x="220" y="740" width="120" height="60" as="geometry" />
        </mxCell>
        <mxCell id="p9L-tS2LZ4l52d3lMuFt-73" value="Username/password are incorrect" style="rounded=1;whiteSpace=wrap;html=1;" vertex="1" parent="1">
          <mxGeometry x="450" y="490" width="120" height="60" as="geometry" />
        </mxCell>
        <mxCell id="p9L-tS2LZ4l52d3lMuFt-76" value="Deposit" style="whiteSpace=wrap;html=1;rounded=1;" vertex="1" parent="1">
          <mxGeometry x="110" y="890" width="120" height="60" as="geometry" />
        </mxCell>
        <mxCell id="p9L-tS2LZ4l52d3lMuFt-78" value="Withdraw" style="whiteSpace=wrap;html=1;rounded=1;" vertex="1" parent="1">
          <mxGeometry x="324" y="890" width="120" height="60" as="geometry" />
        </mxCell>
        <mxCell id="p9L-tS2LZ4l52d3lMuFt-80" value="Check balance" style="whiteSpace=wrap;html=1;rounded=1;" vertex="1" parent="1">
          <mxGeometry x="220" y="1000" width="120" height="60" as="geometry" />
        </mxCell>
        <mxCell id="p9L-tS2LZ4l52d3lMuFt-82" value="View last transaction" style="whiteSpace=wrap;html=1;rounded=1;" vertex="1" parent="1">
          <mxGeometry x="430" y="1040" width="120" height="60" as="geometry" />
        </mxCell>
        <mxCell id="p9L-tS2LZ4l52d3lMuFt-84" value="View transaction history" style="whiteSpace=wrap;html=1;rounded=1;" vertex="1" parent="1">
          <mxGeometry x="20" y="1040" width="120" height="60" as="geometry" />
        </mxCell>
        <mxCell id="p9L-tS2LZ4l52d3lMuFt-95" value="" style="edgeStyle=orthogonalEdgeStyle;rounded=0;orthogonalLoop=1;jettySize=auto;html=1;" edge="1" parent="1" source="p9L-tS2LZ4l52d3lMuFt-86" target="p9L-tS2LZ4l52d3lMuFt-94">
          <mxGeometry relative="1" as="geometry" />
        </mxCell>
        <mxCell id="p9L-tS2LZ4l52d3lMuFt-86" value="Transfer to other users" style="whiteSpace=wrap;html=1;rounded=1;" vertex="1" parent="1">
          <mxGeometry x="610" y="1140" width="120" height="60" as="geometry" />
        </mxCell>
        <mxCell id="p9L-tS2LZ4l52d3lMuFt-99" value="" style="edgeStyle=orthogonalEdgeStyle;rounded=0;orthogonalLoop=1;jettySize=auto;html=1;" edge="1" parent="1" source="p9L-tS2LZ4l52d3lMuFt-94" target="p9L-tS2LZ4l52d3lMuFt-98">
          <mxGeometry relative="1" as="geometry" />
        </mxCell>
        <mxCell id="p9L-tS2LZ4l52d3lMuFt-94" value="Who would you like to transfer to?" style="shape=parallelogram;perimeter=parallelogramPerimeter;whiteSpace=wrap;html=1;fixedSize=1;rounded=1;" vertex="1" parent="1">
          <mxGeometry x="340" y="1250" width="120" height="60" as="geometry" />
        </mxCell>
        <mxCell id="p9L-tS2LZ4l52d3lMuFt-101" value="" style="edgeStyle=orthogonalEdgeStyle;rounded=0;orthogonalLoop=1;jettySize=auto;html=1;" edge="1" parent="1" source="p9L-tS2LZ4l52d3lMuFt-98" target="p9L-tS2LZ4l52d3lMuFt-100">
          <mxGeometry relative="1" as="geometry" />
        </mxCell>
        <mxCell id="p9L-tS2LZ4l52d3lMuFt-102" value="no" style="edgeLabel;html=1;align=center;verticalAlign=middle;resizable=0;points=[];" vertex="1" connectable="0" parent="p9L-tS2LZ4l52d3lMuFt-101">
          <mxGeometry x="-0.1662" y="-1" relative="1" as="geometry">
            <mxPoint as="offset" />
          </mxGeometry>
        </mxCell>
        <mxCell id="p9L-tS2LZ4l52d3lMuFt-104" value="" style="edgeStyle=orthogonalEdgeStyle;rounded=0;orthogonalLoop=1;jettySize=auto;html=1;" edge="1" parent="1" source="p9L-tS2LZ4l52d3lMuFt-98" target="p9L-tS2LZ4l52d3lMuFt-103">
          <mxGeometry relative="1" as="geometry" />
        </mxCell>
        <mxCell id="p9L-tS2LZ4l52d3lMuFt-105" value="yes" style="edgeLabel;html=1;align=center;verticalAlign=middle;resizable=0;points=[];" vertex="1" connectable="0" parent="p9L-tS2LZ4l52d3lMuFt-104">
          <mxGeometry x="-0.3069" y="4" relative="1" as="geometry">
            <mxPoint as="offset" />
          </mxGeometry>
        </mxCell>
        <mxCell id="p9L-tS2LZ4l52d3lMuFt-98" value="Does user exists?" style="whiteSpace=wrap;html=1;rounded=1;" vertex="1" parent="1">
          <mxGeometry x="340" y="1370" width="120" height="60" as="geometry" />
        </mxCell>
        <mxCell id="p9L-tS2LZ4l52d3lMuFt-100" value="User was not found" style="rounded=1;whiteSpace=wrap;html=1;" vertex="1" parent="1">
          <mxGeometry x="530" y="1470" width="120" height="60" as="geometry" />
        </mxCell>
        <mxCell id="p9L-tS2LZ4l52d3lMuFt-107" value="" style="edgeStyle=orthogonalEdgeStyle;rounded=0;orthogonalLoop=1;jettySize=auto;html=1;" edge="1" parent="1" source="p9L-tS2LZ4l52d3lMuFt-103" target="p9L-tS2LZ4l52d3lMuFt-106">
          <mxGeometry relative="1" as="geometry" />
        </mxCell>
        <mxCell id="p9L-tS2LZ4l52d3lMuFt-103" value="How much would you like to send?" style="whiteSpace=wrap;html=1;rounded=1;" vertex="1" parent="1">
          <mxGeometry x="160" y="1470" width="120" height="60" as="geometry" />
        </mxCell>
        <mxCell id="p9L-tS2LZ4l52d3lMuFt-106" value="You have successfully sent {amount} to {user}!" style="whiteSpace=wrap;html=1;rounded=1;" vertex="1" parent="1">
          <mxGeometry x="160" y="1610" width="120" height="60" as="geometry" />
        </mxCell>
      </root>
    </mxGraphModel>
  </diagram>
</mxfile>
